<svg xmlns="http://www.w3.org/2000/svg" xmlns:xlink="http://www.w3.org/1999/xlink" width="1920" height="1080" viewBox="0 0 1920 1080">
  <defs>
    <clipPath id="clip-Web_1920_1">
      <rect width="1920" height="1080"/>
    </clipPath>
  </defs>
  <g id="Web_1920_1" data-name="Web 1920 – 1" clip-path="url(#clip-Web_1920_1)">
    <path id="Union_2" data-name="Union 2" d="M956.721,333.242a36.508,36.508,0,0,0,13.995-3.11,33.357,33.357,0,0,0,12.751-9.33q5.287-6.219,5.287-15.549a14.487,14.487,0,0,0-6.22-12.129,53.62,53.62,0,0,0-16.016-7.775q-9.8-3.11-21.459-5.754t-22.548-5.753a93.283,93.283,0,0,1-12.6-6.221,38.464,38.464,0,0,1-12.285-11.662q-5.287-7.619-5.287-20.059,0-13.685,5.132-23.17a46.355,46.355,0,0,1,13.062-15.395,51.748,51.748,0,0,1,16.483-8.4,56.6,56.6,0,0,1,15.706-2.489v22.392a27.239,27.239,0,0,0-13.529,3.577,29.7,29.7,0,0,0-10.263,9.33,22.53,22.53,0,0,0-3.887,12.907q0,7.775,7,12.44t20.992,8.4q13.994,3.731,34.52,8.707a50.841,50.841,0,0,1,10.574,3.577,49.786,49.786,0,0,1,11.507,7.309,36.219,36.219,0,0,1,9.175,11.818,37.872,37.872,0,0,1,3.576,17.1q0,16.173-7.464,27.835a49,49,0,0,1-20.215,17.882,62.971,62.971,0,0,1-27.99,6.22Zm-41.985,15.705a48.5,48.5,0,0,1-17.882-17.572,42.176,42.176,0,0,1-6.065-21.147l22.7-4.044a21.635,21.635,0,0,0,4.82,13.84,34.388,34.388,0,0,0,11.662,9.485,33.418,33.418,0,0,0,13.373,3.732v22.7Q926.554,355.945,914.736,348.947Zm-402.745,6.376V237.454a25.231,25.231,0,0,0-2.8-11.041,24.875,24.875,0,0,0-8.864-9.8q-6.064-4.042-16.016-4.043V190.182q16.172,0,27.524,6.531a46,46,0,0,1,17.26,16.638,41.575,41.575,0,0,1,5.909,21.3V355.323Zm-94.855,0V135.135h22.7v66.554q3.731-3.733,11.352-7.619t18.5-3.888v22.392a27.724,27.724,0,0,0-14.305,4.043,37.231,37.231,0,0,0-11.041,9.642q-4.2,5.6-4.2,11.2V355.323Zm407.721-23.636a29.929,29.929,0,0,0,13.84-3.265,28.294,28.294,0,0,0,10.418-9.02,26.764,26.764,0,0,0,4.665-13.528v-6.531l22.7,8.4a40.254,40.254,0,0,1-7.465,23.481,54.811,54.811,0,0,1-19.282,17.1,51.667,51.667,0,0,1-24.88,6.376Zm-480.183,0a29.925,29.925,0,0,0,13.839-3.265,28.287,28.287,0,0,0,10.418-9.02,26.756,26.756,0,0,0,4.665-13.528v-6.531l22.7,8.4a40.253,40.253,0,0,1-7.464,23.481,54.814,54.814,0,0,1-19.283,17.1,51.666,51.666,0,0,1-24.88,6.376ZM786.6,349.569a44.569,44.569,0,0,1-15.861-12.284A51.791,51.791,0,0,1,762.19,322.2a41.941,41.941,0,0,1-2.643-13.528V233.1a40.014,40.014,0,0,1,3.109-14.462,50.324,50.324,0,0,1,25.658-26.9q9.8-4.666,22.858-4.665v23.014a27.563,27.563,0,0,0-15.083,4.043,29.746,29.746,0,0,0-9.642,9.33,19.977,19.977,0,0,0-3.265,10.573v74.641a19.666,19.666,0,0,0,3.421,10.418,25.762,25.762,0,0,0,9.641,8.863,30.55,30.55,0,0,0,14.928,3.421v23.014Q796.556,354.389,786.6,349.569Zm-79.305,4.82V188.316h23.947V354.389Zm-52.248,0V238.7a26.861,26.861,0,0,0-3.421-12.44,31.4,31.4,0,0,0-10.107-11.2,27.284,27.284,0,0,0-16.017-4.666V186.761a53.654,53.654,0,0,1,22.392,4.51,51.018,51.018,0,0,1,16.794,11.973,53.94,53.94,0,0,1,10.419,16.328,45.972,45.972,0,0,1,3.576,17.26V354.389Zm-97.032,0V236.831a46.674,46.674,0,0,1,3.577-17.571,53.926,53.926,0,0,1,10.418-16.328,49.179,49.179,0,0,1,16.794-11.818,56.134,56.134,0,0,1,22.7-4.354V210.4a28.277,28.277,0,0,0-14.461,3.888,32.246,32.246,0,0,0-10.885,10.263,25.182,25.182,0,0,0-4.2,14.151V354.389Zm-251.6-4.82a44.577,44.577,0,0,1-15.861-12.284,51.794,51.794,0,0,1-8.553-15.084,41.941,41.941,0,0,1-2.643-13.528V233.1a40,40,0,0,1,3.11-14.462,50.319,50.319,0,0,1,25.657-26.9q9.8-4.666,22.858-4.665v23.014a27.563,27.563,0,0,0-15.083,4.043,29.743,29.743,0,0,0-9.641,9.33A19.978,19.978,0,0,0,303,234.032v74.641a19.666,19.666,0,0,0,3.421,10.418,25.758,25.758,0,0,0,9.642,8.863,30.544,30.544,0,0,0,14.927,3.421v23.014Q316.372,354.389,306.419,349.569Zm-104.5-17.882A31.331,31.331,0,0,0,217.94,327.8a35.084,35.084,0,0,0,10.73-9.329,29.515,29.515,0,0,0,5.287-10.73l20.837,7.775a49.945,49.945,0,0,1-9.641,18.971,52.772,52.772,0,0,1-18.038,14.461q-10.885,5.443-25.191,5.442Zm-37.476,17.882a54.881,54.881,0,0,1-16.483-12.128,52.76,52.76,0,0,1-9.952-15.084q-3.266-7.775-3.265-13.684V232.167a35.011,35.011,0,0,1,3.265-13.529,51.5,51.5,0,0,1,9.952-14.772,56.27,56.27,0,0,1,16.483-11.974A50.441,50.441,0,0,1,187,187.072v23.014a26.244,26.244,0,0,0-14.773,4.2,32.544,32.544,0,0,0-9.952,9.951q-3.576,5.754-3.576,10.419v22.081h72.774v-21.77a21.135,21.135,0,0,0-4.354-13.373,30.975,30.975,0,0,0-11.04-8.863,31.833,31.833,0,0,0-14.151-3.265V187.072a54.611,54.611,0,0,1,24.413,5.908A58.438,58.438,0,0,1,246.4,209a35.624,35.624,0,0,1,8.087,22.859V279.75H158.7v28.923q0,4.354,3.576,9.8a31.913,31.913,0,0,0,10.108,9.485A27.775,27.775,0,0,0,187.307,332v22.392Q174.245,354.389,164.448,349.569ZM73.138,354V119.506H6.786V90.1H170.027v29.406H103.3V354ZM850.048,234.966q-.312-8.707-4.2-13.995a24.845,24.845,0,0,0-9.485-7.931,26.025,26.025,0,0,0-11.2-2.643V187.072a46.526,46.526,0,0,1,23.947,6.375,48.308,48.308,0,0,1,17.26,16.95,44.316,44.316,0,0,1,6.376,23.325l-22.392,8.4Zm-480.184,0q-.312-8.707-4.2-13.995a24.854,24.854,0,0,0-9.486-7.931,26.022,26.022,0,0,0-11.2-2.643V187.072a46.526,46.526,0,0,1,23.947,6.375,48.308,48.308,0,0,1,17.26,16.95,44.316,44.316,0,0,1,6.376,23.325l-22.392,8.4Zm611.27-14.617a34.446,34.446,0,0,0-13.062-8.553q-7.309-2.643-11.974-2.643l.31-22.7q15.861,0,27.68,7a53.884,53.884,0,0,1,18.5,17.572q6.687,10.575,6.687,21.46l-22.392,3.731Q986.888,226.259,981.134,220.349ZM709.165,170.433a13.2,13.2,0,0,1,0-19.593,13.942,13.942,0,0,1,9.952-4.2,14,14,0,0,1,0,27.99A13.942,13.942,0,0,1,709.165,170.433Z" transform="translate(437 397)" fill="#0d46a1" stroke="rgba(0,0,0,0)" stroke-miterlimit="10" stroke-width="1"/>
    <path id="Union_1" data-name="Union 1" d="M273.482,337.388a56.664,56.664,0,0,0,12.284-2.955,35.289,35.289,0,0,0,12.284-7.464,29.119,29.119,0,0,0,8.087-13.217,28.28,28.28,0,0,0,1.4-5.287,32.271,32.271,0,0,0,.466-5.287q.312-1.555.467-2.955t.155-2.021l23.325,5.6a54.218,54.218,0,0,1-8.4,29.7,61.6,61.6,0,0,1-21.77,20.838,56.3,56.3,0,0,1-28.3,7.619Zm-43.852,18.349A57.5,57.5,0,0,1,210.5,340.032a68.962,68.962,0,0,1-10.73-19.282q-3.421-9.8-3.421-16.639V199.3q0-7.152,3.421-16.95a68.962,68.962,0,0,1,10.73-19.282,59.144,59.144,0,0,1,19.126-15.861q11.818-6.376,28.923-6.376v24.88q-10.263,0-17.26,3.888a39.837,39.837,0,0,0-11.507,9.329,34.565,34.565,0,0,0-6.376,11.041,30.7,30.7,0,0,0-1.866,9.329V304.111a28.643,28.643,0,0,0,2.021,9.33,38.927,38.927,0,0,0,6.376,11.04,35.457,35.457,0,0,0,11.507,9.175,36.539,36.539,0,0,0,17.105,3.732v24.569Q241.449,361.958,229.631,355.738ZM12.751,360.4V142.7h113.2v24.569H37.631v72.463h59.09V264.3H37.631v71.53h88.324V360.4Zm132.1-.4V116.8H76.038V86.3h169.3v30.5H176.134V360ZM308,203.658v-2.488q-.311-2.488-.622-4.821a22.041,22.041,0,0,0-1.244-4.82q-3.11-9.018-7.931-14.15a32.084,32.084,0,0,0-9.952-7.465,41.651,41.651,0,0,0-9.174-3.109q-4.043-.778-5.6-1.089v-24.88a49.59,49.59,0,0,1,21.614,4.976,67.786,67.786,0,0,1,18.815,13.373,64.49,64.49,0,0,1,13.217,18.97,51.95,51.95,0,0,1,4.82,21.77L308,206.146Z" transform="translate(777.5 152)" fill="#0d46a1" stroke="rgba(0,0,0,0)" stroke-miterlimit="10" stroke-width="1"/>
  </g>
</svg>
